<?xml version="1.0" standalone="no"?>
<!DOCTYPE svg PUBLIC "-//W3C//DTD SVG 20010904//EN"
 "http://www.w3.org/TR/2001/REC-SVG-20010904/DTD/svg10.dtd">
<svg version="1.0" xmlns="http://www.w3.org/2000/svg"
 width="4039.000000pt" height="667.000000pt" viewBox="0 0 4039.000000 667.000000"
 preserveAspectRatio="xMidYMid meet">

<g transform="translate(0.000000,667.000000) scale(0.100000,-0.100000)"
fill="#f05d41" stroke="none">
<path d="M15660 6659 c-1233 -74 -2363 -781 -2887 -1804 -259 -508 -368 -1030
-333 -1610 40 -688 220 -1252 566 -1775 701 -1062 1992 -1603 3399 -1424 643
81 1228 327 1725 723 122 97 354 329 451 451 400 501 630 1054 725 1740 21
154 30 627 15 785 -59 620 -305 1206 -709 1685 -106 127 -333 347 -459 447
-590 469 -1292 735 -2068 783 -175 11 -238 11 -425 -1z m515 -1584 c466 -81
872 -327 1149 -696 157 -208 262 -444 308 -694 22 -120 16 -436 -11 -590 -71
-402 -239 -732 -511 -1005 -316 -316 -703 -487 -1150 -507 -944 -42 -1728 663
-1831 1646 -15 141 -6 398 16 501 158 719 788 1274 1546 1359 113 13 373 6
484 -14z"/>
<path d="M23495 6573 c-666 -33 -1291 -263 -1795 -663 -135 -106 -363 -335
-470 -470 -348 -439 -576 -976 -659 -1555 -43 -299 -51 -633 -21 -925 46 -450
185 -909 385 -1272 504 -914 1388 -1479 2454 -1569 195 -16 533 -7 716 21 501
74 943 267 1340 586 106 85 385 355 385 371 -1 4 -53 50 -117 101 l-117 94
-50 -59 c-301 -353 -742 -626 -1221 -758 -479 -131 -1046 -116 -1540 42 -428
137 -767 344 -1085 662 -163 164 -267 292 -376 463 -500 789 -610 1877 -285
2818 197 571 589 1079 1078 1396 348 226 756 372 1193 426 152 19 556 16 693
-5 619 -95 1141 -371 1527 -808 l67 -75 111 98 c92 81 110 102 103 116 -21 40
-325 324 -433 405 -534 401 -1185 595 -1883 560z"/>
<path d="M26540 3345 l0 -3125 135 0 135 0 0 3125 0 3125 -135 0 -135 0 0
-3125z"/>
<path d="M40100 5218 l0 -1251 -62 84 c-82 109 -260 293 -368 379 -350 278
-776 430 -1209 430 -661 0 -1233 -300 -1593 -835 -222 -330 -360 -738 -409
-1210 -17 -171 -15 -549 5 -720 89 -753 401 -1327 905 -1666 418 -281 973
-386 1487 -279 457 95 910 382 1183 750 l61 82 0 -381 0 -381 140 0 140 0 0
3125 0 3125 -140 0 -140 0 0 -1252z m-1308 -637 c137 -28 238 -57 353 -103
373 -147 724 -424 917 -722 l38 -59 0 -1226 0 -1226 -63 -87 c-276 -385 -729
-669 -1227 -770 -102 -20 -143 -23 -350 -23 -205 1 -248 4 -340 24 -304 65
-543 189 -753 390 -316 303 -503 701 -589 1251 -19 127 -22 183 -22 450 0 265
3 324 22 450 75 483 238 868 494 1160 243 278 567 451 948 506 136 19 444 11
572 -15z"/>
<path d="M3490 6449 c-508 -57 -971 -319 -1283 -727 -70 -91 -144 -213 -196
-323 -29 -60 -1408 -3632 -1981 -5131 l-18 -48 857 0 858 0 159 444 159 443
1118 293 c616 160 1123 288 1127 283 4 -4 121 -335 261 -736 l254 -727 1594 2
1594 3 711 1012 c391 557 716 1011 721 1009 6 -1 144 -211 308 -467 569 -887
542 -847 705 -1012 297 -302 688 -489 1117 -537 64 -7 283 -10 611 -8 l510 3
-1152 1665 -1152 1665 28 40 c15 22 462 673 993 1447 532 775 967 1410 967
1413 0 3 -446 4 -992 3 l-992 -3 -471 -799 c-259 -439 -475 -799 -480 -800 -5
0 -107 166 -227 369 -252 430 -307 511 -441 651 -263 275 -582 456 -948 538
-185 41 -279 46 -818 46 l-510 0 996 -1450 c547 -798 992 -1456 989 -1463 -11
-25 -2092 -2861 -2101 -2863 -8 -3 -1109 2908 -2168 5728 l-18 48 -307 -1
c-169 -1 -341 -5 -382 -10z m105 -2765 c164 -471 299 -865 299 -876 1 -19 -58
-36 -679 -199 -374 -98 -683 -177 -687 -176 -3 1 161 468 366 1037 426 1188
383 1070 394 1070 4 0 142 -385 307 -856z"/>
<path d="M29435 4854 c-16 -2 -72 -9 -124 -15 -396 -46 -801 -239 -1100 -524
-358 -341 -596 -825 -682 -1385 -27 -174 -37 -536 -20 -716 43 -456 181 -860
409 -1205 344 -515 857 -826 1471 -890 141 -14 429 -6 561 16 352 59 662 196
931 413 87 71 256 242 320 327 252 329 417 737 486 1200 14 94 18 184 18 410
0 304 -5 367 -51 595 -202 1007 -899 1677 -1843 1770 -96 9 -308 11 -376 4z
m531 -278 c444 -93 812 -348 1066 -737 305 -469 434 -1093 353 -1714 -96 -735
-469 -1322 -1010 -1590 -149 -74 -267 -115 -427 -147 -153 -31 -507 -33 -663
-4 -597 111 -1064 520 -1310 1150 -124 316 -186 695 -171 1051 42 1049 620
1837 1463 1994 151 29 164 29 383 26 161 -3 216 -8 316 -29z"/>
<path d="M32403 3043 c4 -1863 1 -1777 61 -2026 108 -447 374 -728 799 -842
178 -48 285 -60 532 -60 211 1 240 3 358 28 428 91 838 317 1183 649 l124 120
0 -346 0 -346 140 0 140 0 0 2265 0 2265 -140 0 -140 0 0 -1786 0 -1787 -57
-70 c-277 -343 -754 -624 -1218 -717 -152 -31 -441 -38 -611 -16 -503 66 -768
317 -866 821 -22 109 -22 120 -25 1833 l-4 1722 -140 0 -140 0 4 -1707z"/>
</g>
</svg>
